<svg width="252" height="231" viewBox="0 0 252 231" fill="none" xmlns="http://www.w3.org/2000/svg">
<path d="M14 57H96V230H14V57Z" fill="#FFFFDC"/>
<path d="M74 92H150V230H74V92Z" fill="#FFFFDC"/>
<rect x="62" y="119" width="126" height="111" fill="#FEEE7D"/>
<rect y="59.4068" width="93.4518" height="20" transform="rotate(-10 0 59.4068)" fill="#FEEE7D"/>
<path d="M107 75.5H154.953V95.5H107V75.5Z" fill="#FEEE7D"/>
<rect x="87" y="30" width="20" height="200" fill="#585858"/>
<rect x="123" y="30" width="20" height="200" fill="#585858"/>
<rect x="158" y="30" width="20" height="69" fill="#AA4A44"/>
<rect x="158" y="99" width="20" height="151.778" transform="rotate(-30 158 99)" fill="#AA4A44"/>
<rect x="87" y="230" width="20" height="120" transform="rotate(-90 87 230)" fill="#585858"/>
<rect x="71" width="105" height="20" fill="#AA4A44"/>
<mask id="path-12-inside-1_4_38" fill="white">
<path d="M175.5 0C190.454 1.78326e-07 204.997 4.89355 216.91 13.9336C228.822 22.9736 237.449 35.6635 241.473 50.0659C245.497 64.4683 244.698 79.792 239.197 93.6976C233.696 107.603 223.796 119.327 211.008 127.078L200.64 109.974C209.694 104.485 216.703 96.1851 220.598 86.3399C224.492 76.4948 225.058 65.6456 222.209 55.4487C219.36 45.2518 213.252 36.2673 204.818 29.867C196.384 23.4666 186.087 20.002 175.5 20.002L175.5 0Z"/>
</mask>
<path d="M175.5 0C190.454 1.78326e-07 204.997 4.89355 216.91 13.9336C228.822 22.9736 237.449 35.6635 241.473 50.0659C245.497 64.4683 244.698 79.792 239.197 93.6976C233.696 107.603 223.796 119.327 211.008 127.078L200.64 109.974C209.694 104.485 216.703 96.1851 220.598 86.3399C224.492 76.4948 225.058 65.6456 222.209 55.4487C219.36 45.2518 213.252 36.2673 204.818 29.867C196.384 23.4666 186.087 20.002 175.5 20.002L175.5 0Z" stroke="#AA4A44" stroke-width="40" mask="url(#path-12-inside-1_4_38)"/>
</svg>
